# File created by Blade
# Date/Time:  Wed Sep 24 19:25:39 2014
# Frame Rate: 120.000 fps
#------------------------------------------------------
:FULLY-SPECIFIED
:DEGREES
1991
root -14.951872 32.846488 -3.923372 16.728706 29.297365 6.723336
Spine -20.547579 7.230444 1.149192
Head 16.309574 -3.807022 0.975077
LeftShoulder -15.377146 26.654976 7.062945
LeftArm 20.655025 27.356580 -70.661951
LeftForeArm 6.937381 -0.000000 33.868734
LeftHand -25.963286 -0.000000 -3.864163
LeftHandThumb1 -26.253704 0.000000 33.147579
RightShoulder -19.331866 9.203247 -28.147574
RightArm -10.784456 8.830651 67.156026
RightForeArm -18.389461 -0.000000 122.878835
RightHand -13.326432 -0.000000 -3.633880
RightHandThumb1 -24.326973 -0.000000 -32.862282
LeftUpLeg -5.427015 43.466133 9.835043
LeftLeg 117.021707 -0.000000 -0.000000
LeftFoot 35.878655 15.900078 -23.333171
LeftToeBase 19.040156 -0.000000 -0.000000
RightUpLeg -9.830442 -5.242335 2.720744
RightLeg 1.371190 -0.000000 -0.000000
RightFoot -10.297179 -11.575167 -7.869534
RightToeBase -0.972741 -0.000000 0.000000
1992
root -14.958544 32.852293 -3.905702 16.886057 29.079125 6.809657
Spine -20.853707 7.138866 0.861874
Head 16.604946 -3.594498 1.129855
LeftShoulder -15.512774 26.807970 6.996426
LeftArm 20.440295 26.998479 -70.549305
LeftForeArm 7.014130 -0.000000 34.006880
LeftHand -25.995977 -0.000000 -3.705316
LeftHandThumb1 -26.253704 0.000000 33.147579
RightShoulder -19.392717 9.137528 -28.034523
RightArm -10.697008 8.537378 67.249291
RightForeArm -18.310968 -0.000000 122.868828
RightHand -13.272353 -0.000000 -3.668823
RightHandThumb1 -24.326973 -0.000000 -32.862282
LeftUpLeg -4.923863 43.640259 10.420213
LeftLeg 117.927356 -0.000000 -0.000000
LeftFoot 36.191468 15.685198 -23.192161
LeftToeBase 18.863292 -0.000000 -0.000000
RightUpLeg -9.869627 -5.203164 2.648784
RightLeg 1.221403 -0.000000 -0.000000
RightFoot -10.229458 -11.442628 -7.888598
RightToeBase -0.983932 -0.000000 0.000000
1993
root -14.958099 32.857151 -3.882396 17.028998 28.851174 6.883607
Spine -21.176503 7.072240 0.606876
Head 16.877364 -3.395869 1.232281
LeftShoulder -15.742721 27.005926 6.885872
LeftArm 20.375347 26.777546 -70.351287
LeftForeArm 6.963152 -0.000000 34.013787
LeftHand -26.017324 -0.000000 -3.647952
LeftHandThumb1 -26.253704 0.000000 33.147579
RightShoulder -19.463008 9.020764 -27.939126
RightArm -10.626851 8.319023 67.311047
RightForeArm -18.120946 -0.000000 122.905309
RightHand -13.323015 0.000000 -3.794497
RightHandThumb1 -24.326973 -0.000000 -32.862282
LeftUpLeg -4.331568 43.694395 11.011990
LeftLeg 118.817117 -0.000000 -0.000000
LeftFoot 36.332718 15.349170 -23.164947
LeftToeBase 18.796620 -0.000000 -0.000000
RightUpLeg -9.894951 -5.268125 2.596054
RightLeg 1.085664 -0.000000 -0.000000
RightFoot -10.182401 -11.207123 -7.911055
RightToeBase -1.063167 -0.000000 0.000000
1994
root -14.955844 32.860971 -3.859401 17.163454 28.715439 6.958521
Spine -21.499084 6.973550 0.400284
Head 17.145203 -3.270971 1.254647
LeftShoulder -15.913853 27.223744 6.773010
LeftArm 20.364112 26.566043 -70.141570
LeftForeArm 6.813988 0.000000 33.976393
LeftHand -26.052991 -0.000000 -3.741838
LeftHandThumb1 -26.253704 0.000000 33.147579
RightShoulder -19.517150 8.883761 -27.891913
RightArm -10.591118 8.134146 67.380457
RightForeArm -18.230651 -0.000000 122.949502
RightHand -13.224365 -0.000000 -3.721471
RightHandThumb1 -24.326973 -0.000000 -32.862282
LeftUpLeg -3.775187 43.563374 11.558766
LeftLeg 119.700933 -0.000000 -0.000000
LeftFoot 36.388819 15.151986 -23.259380
LeftToeBase 18.490086 -0.000000 -0.000000
RightUpLeg -9.898672 -5.421229 2.568745
RightLeg 0.930192 -0.000000 -0.000000
RightFoot -10.143431 -11.009159 -7.953667
RightToeBase -1.094359 -0.000000 0.000000
1995
root -14.951713 32.864703 -3.841906 17.357860 28.586682 7.078493
Spine -21.835313 6.834172 0.152531
Head 17.342100 -3.112215 1.336691
LeftShoulder -16.119394 27.375688 6.698394
LeftArm 20.302130 26.406292 -69.984850
LeftForeArm 6.847554 -0.000000 33.939227
LeftHand -26.045524 0.000000 -3.962411
LeftHandThumb1 -26.253704 0.000000 33.147579
RightShoulder -19.621211 8.736184 -27.813413
RightArm -10.488102 7.911309 67.413065
RightForeArm -18.247294 -0.000000 122.988535
RightHand -13.227586 -0.000000 -3.943419
RightHandThumb1 -24.326973 -0.000000 -32.862282
LeftUpLeg -3.288278 43.360120 11.980127
LeftLeg 120.528876 -0.000000 -0.000000
LeftFoot 36.619815 14.902368 -23.032577
LeftToeBase 18.360840 -0.000000 -0.000000
RightUpLeg -9.944990 -5.520498 2.484906
RightLeg 0.784160 -0.000000 -0.000000
RightFoot -10.126567 -10.831262 -7.989419
RightToeBase -1.093418 -0.000000 0.000000
1996
root -14.949162 32.867411 -3.825453 17.510082 28.520082 7.157818
Spine -22.137286 6.715405 -0.010045
Head 17.509019 -2.993884 1.323955
LeftShoulder -16.233734 27.488703 6.610711
LeftArm 20.242067 26.253286 -69.827790
LeftForeArm 6.841487 -0.000000 33.807141
LeftHand -26.087008 -0.000000 -3.801986
LeftHandThumb1 -26.253704 0.000000 33.147579
RightShoulder -19.705895 8.593240 -27.791244
RightArm -10.467972 7.805434 67.428402
RightForeArm -18.270089 0.000000 123.065203
RightHand -13.342945 -0.000000 -3.996058
RightHandThumb1 -24.326973 -0.000000 -32.862282
LeftUpLeg -2.811015 42.989332 12.389708
LeftLeg 121.348380 -0.000000 -0.000000
LeftFoot 36.721455 14.685271 -22.973450
LeftToeBase 18.332461 -0.000000 -0.000000
RightUpLeg -9.967964 -5.666000 2.452488
RightLeg 0.634770 -0.000000 -0.000000
RightFoot -10.097859 -10.664022 -8.041837
RightToeBase -1.084990 -0.000000 0.000000
1997
root -14.946677 32.871401 -3.812534 17.689431 28.489407 7.257639
Spine -22.449457 6.587224 -0.182135
Head 17.636285 -2.874108 1.295580
LeftShoulder -16.304998 27.574465 6.552900
LeftArm 20.179129 26.129356 -69.691036
LeftForeArm 6.778822 0.000000 33.658316
LeftHand -26.058381 -0.000000 -3.780779
LeftHandThumb1 -26.253704 0.000000 33.147579
RightShoulder -19.790638 8.445254 -27.751125
RightArm -10.508145 7.862796 67.369891
RightForeArm -17.787727 -0.000000 123.201323
RightHand -13.246800 -0.000000 -3.666048
RightHandThumb1 -24.326973 -0.000000 -32.862282
LeftUpLeg -2.408332 42.510648 12.685450
LeftLeg 122.105292 -0.000000 -0.000000
LeftFoot 36.901623 14.446881 -22.805565
LeftToeBase 18.457151 -0.000000 -0.000000
RightUpLeg -10.015317 -5.828875 2.409847
RightLeg 0.486857 -0.000000 -0.000000
RightFoot -10.056452 -10.516580 -8.090392
RightToeBase -1.098262 -0.000000 0.000000
1998
root -14.944747 32.873899 -3.802711 17.826835 28.482773 7.327960
Spine -22.696561 6.452047 -0.288376
Head 17.707598 -2.775421 1.225084
LeftShoulder -16.377034 27.648809 6.478222
LeftArm 20.163706 26.031676 -69.570484
LeftForeArm 6.796802 -0.000000 33.456188
LeftHand -26.100297 -0.000000 -3.875630
LeftHandThumb1 -26.253704 0.000000 33.147579
RightShoulder -19.896311 8.281594 -27.730370
RightArm -10.435772 7.753536 67.339702
RightForeArm -17.939866 0.000000 123.241102
RightHand -13.306915 -0.000000 -4.071563
RightHandThumb1 -24.326973 -0.000000 -32.862282
LeftUpLeg -2.005065 41.935501 12.978149
LeftLeg 122.805108 -0.000000 -0.000000
LeftFoot 37.132906 14.197758 -22.707991
LeftToeBase 18.208277 -0.000000 -0.000000
RightUpLeg -10.049824 -5.969148 2.387550
RightLeg 0.366557 -0.000000 -0.000000
RightFoot -10.013411 -10.397519 -8.119346
RightToeBase -1.148122 -0.000000 0.000000
1999
root -14.939628 32.877094 -3.792811 17.958967 28.470721 7.401460
Spine -22.935454 6.316542 -0.374142
Head 17.779221 -2.660024 1.129361
LeftShoulder -16.472310 27.704913 6.384902
LeftArm 20.149463 25.957880 -69.452778
LeftForeArm 6.749944 -0.000000 33.234776
LeftHand -26.176357 -0.000000 -3.797578
LeftHandThumb1 -26.253704 0.000000 33.147579
RightShoulder -19.956436 8.144310 -27.703232
RightArm -10.420562 7.787760 67.247307
RightForeArm -17.903503 -0.000000 123.313431
RightHand -13.267643 -0.000000 -4.042163
RightHandThumb1 -24.326973 -0.000000 -32.862282
LeftUpLeg -1.615631 41.311798 13.198844
LeftLeg 123.427210 -0.000000 -0.000000
LeftFoot 37.418679 13.916063 -22.502403
LeftToeBase 18.053392 -0.000000 -0.000000
RightUpLeg -10.080572 -6.088673 2.353169
RightLeg 0.257291 -0.000000 -0.000000
RightFoot -9.981953 -10.290095 -8.160581
RightToeBase -1.158231 -0.000000 0.000000
